<?xml version="1.0" standalone="no"?>
<!DOCTYPE svg PUBLIC "-//W3C//DTD SVG 20010904//EN"
 "http://www.w3.org/TR/2001/REC-SVG-20010904/DTD/svg10.dtd">
<svg version="1.0" xmlns="http://www.w3.org/2000/svg"
 width="1080.000000pt" height="1080.000000pt" viewBox="0 0 1080.000000 1080.000000"
 preserveAspectRatio="xMidYMid meet">

<g transform="translate(0.000000,1080.000000) scale(0.100000,-0.100000)"
fill="#000000" stroke="none">
<path d="M3925 6868 c-3 -7 -4 -672 -3 -1478 l3 -1465 1475 0 1475 0 0 1475 0
1475 -1473 3 c-1173 2 -1474 0 -1477 -10z m2795 -1468 l0 -1320 -1320 0 -1320
0 0 1320 0 1320 1320 0 1320 0 0 -1320z"/>
<path d="M5583 6014 c-10 -5 -13 -126 -13 -560 l0 -554 105 0 105 0 0 118 0
118 48 47 c26 26 50 47 54 47 3 0 54 -74 113 -165 l108 -165 108 0 c60 0 109
4 109 9 0 5 -68 108 -150 230 l-151 221 141 162 c77 89 140 166 140 170 0 4
-49 8 -109 8 l-109 0 -148 -170 -149 -171 -5 328 -5 328 -90 2 c-49 1 -96 -1
-102 -3z"/>
<path d="M4592 5982 c-9 -6 -12 -122 -10 -543 l3 -534 315 0 315 0 55 26 c77
36 124 80 150 141 29 67 25 190 -8 254 -22 43 -78 98 -118 116 -24 11 -24 11
25 63 132 139 93 377 -75 461 -36 17 -66 19 -339 22 -165 1 -306 -1 -313 -6z
m533 -204 c36 -16 55 -57 55 -119 0 -45 -4 -55 -34 -85 l-34 -34 -156 0 -156
0 0 125 0 125 150 0 c94 0 159 -4 175 -12z m56 -455 c61 -60 49 -175 -21 -216
-23 -14 -57 -17 -194 -17 l-166 0 0 136 0 135 175 -3 175 -3 31 -32z"/>
</g>
</svg>
